<svg id="svg2" width="187.6" height="30.482" version="1.1" viewBox="0 0 187.6 30.482" xml:space="preserve" xmlns="http://www.w3.org/2000/svg"><g id="g10" transform="matrix(1.3333 0 0 -1.3333 -30.242 60.473)"><g id="g12" transform="scale(.1)" fill="#fff"><path id="path14" d="m1091.8 287.27c-8.1-40.165-39.13-42.211-45.28-42.211-17.52 0-27.97 10.121-27.97 27.046 0 3.86 0.57 9.122 1.55 14.387l19.19 95.617 0.09 0.368h-22.68l-19.552-98.047-0.257-1.403c-0.84-4.429-1.625-8.629-1.625-14.078 0-26.344 17.294-44.019 43.084-44.019 18.86 0 34.01 6.187 45.07 18.41l-2.94-16.152-0.07-0.383h22.35l30.88 155.3 0.07 0.368h-23l-18.91-95.207"/><path id="path16" d="m1246.4 384.36c-17.52 0-33.04-7.16-42.81-19.734l3.51 17.48 0.06 0.368h-22.35l-30.89-155.29-0.07-0.383h22.69l18.91 95.246c4.83 24.449 23.6 42.176 44.65 42.176 9.04 0 16.16-3.563 21.76-10.872l0.21-0.285 18.41 16.489-0.19 0.238c-8.5 9.82-19.6 14.566-33.89 14.566"/><path id="path18" d="m871.49 362.73-0.066-0.386h77.359l-102.99-116.45-0.055-0.058-3.883-19.035h109.78l3.906 20.144h-82.066l103.31 116.45 0.051 0.067 3.871 19.012h-105.37l-3.844-19.747"/><path id="path20" d="m1283.3 227.19-0.08-0.383h22.67l30.93 155.67h-22.29l-31.23-155.29"/><path id="path22" d="m1590.7 384.36c-18.65 0-33.21-5.714-44.4-17.496l17.59 86.688h-22.68l-45.56-226.76h22.68l18.91 95.258c8.1 40.148 39.41 42.18 45.59 42.18 17.34 0 27.69-10.114 27.69-27.039 0-3.84-0.59-9.079-1.58-14.403l-19.24-95.996h22.65l19.89 98.086c0.95 5.219 1.59 9.621 1.59 15.469 0 26.332-17.36 44.015-43.13 44.015"/><path id="path24" d="m1440.4 384.36c-41.13 0-70-28.972-79.23-79.492-1.66-8.461-2.23-17.922-2.23-23.969 0-34.519 20.95-55.972 54.71-55.972 19.63 0 37.55 7.527 51.81 21.773l0.2 0.215-13.07 15.953-0.24 0.281-0.24-0.265c-12.03-12.657-22.81-17.828-37.21-17.828-16.09 0-33.3 9.578-33.3 36.48 0 8.418 1 15.375 2.49 23.215 2.43 13.199 7.9 31.641 20.05 44.469 9.66 9.957 21.11 15.004 34.06 15.004 13.52 0 21.98-4.809 30.22-17.149l0.19-0.305 16.64 14.063 0.24 0.195-0.18 0.254c-11.36 15.969-25.22 23.078-44.91 23.078"/><path id="path26" d="m1323 425.2h22.72l5.65 28.348h-22.64l-5.73-28.348"/><path id="path28" d="m1102.5 425.2h22.73l5.62 28.348h-22.61l-5.74-28.348"/><path id="path30" d="m1042 425.2h22.72l5.64 28.348h-22.62l-5.74-28.348"/><path id="path32" d="m739.1 365.68h-51.016l17.914 87.867h-433.64l-45.542-226.76h172.9l11.324 56.68h-102.09l6.192 31.183h102.05l10.274 51.032h-102.07l6.179 31.183h161.8l-34.16-170.08h70.867l34.156 170.08h59.496l-34.156-170.08h70.883l17.488 87.863h51.004l-17.488-87.863h70.863l45.563 226.76h-70.871l-17.918-87.867"/></g></g></svg>
