<svg id="Ebene_1" data-name="Ebene 1" version="1.1" viewBox="0 0 270.16 90.53" xmlns="http://www.w3.org/2000/svg"><defs id="defs2001"><style id="style1972">.cls-1{fill:none;}.cls-2{clip-path:url(#clip-path);}.cls-3{fill:#fff;}.cls-4{fill:#212121;}.cls-5{fill:#929292;}.cls-6{fill:#a9a9a9;}.cls-7{fill:#ff7e79;}.cls-8{opacity:0.76;isolation:isolate;}.cls-9{clip-path:url(#clip-path-3);}.cls-10{clip-path:url(#clip-path-4);}.cls-11{fill:#fed28d;}.cls-12{clip-path:url(#clip-path-6);}.cls-13{clip-path:url(#clip-path-7);}.cls-14{clip-path:url(#clip-path-9);}.cls-15{clip-path:url(#clip-path-10);}.cls-16{clip-path:url(#clip-path-12);}.cls-17{clip-path:url(#clip-path-13);}</style><clipPath id="clip-path-3"><rect id="rect1977" class="cls-1" x="45.13" y="46.08" width="21" height="21"/></clipPath><clipPath id="clip-path-4"><rect id="rect1980" class="cls-1" x="44.13" y="44.08" width="23" height="25"/></clipPath><clipPath id="clip-path-6"><rect id="rect1983" class="cls-1" x="22.13" y="46.08" width="23" height="21"/></clipPath><clipPath id="clip-path-7"><rect id="rect1986" class="cls-1" x="21.13" y="44.08" width="24" height="25"/></clipPath><clipPath id="clip-path-9"><rect id="rect1989" class="cls-1" x="22.13" y="22.08" width="22" height="22"/></clipPath><clipPath id="clip-path-10"><rect id="rect1992" class="cls-1" x="21.13" y="21.08" width="24" height="25"/></clipPath><clipPath id="clip-path-12"><rect id="rect1995" class="cls-1" x="45.13" y="22.08" width="22" height="22"/></clipPath><clipPath id="clip-path-13"><rect id="rect1998" class="cls-1" x="44.13" y="21.08" width="24" height="25"/></clipPath></defs><title id="title2003">Zeichenfläche 1</title><g id="g3257"><g id="g3249" fill="#6e6e6e"><g id="g3773"><path id="path3739" d="m263.62 52.391v4.6992a5.76 5.76 0 0 1 0.71094 0 3.55 3.55 0 0 1 2.2695 0.59961 2 2 0 0 1 0.73047 1.5898 2.3 2.3 0 0 1-0.5 1.4902 1.86 1.86 0 0 1-1.541 0.62109 4.89 4.89 0 0 1-1.8281-0.39062v1.1191a7.88 7.88 0 0 0 1.6992 0.20117 3.65 3.65 0 0 0 2.709-0.88086 2.94 2.94 0 0 0 0.87109-2.1387 3.09 3.09 0 0 0-1-2.3008 4.16 4.16 0 0 0-3-0.92969v-2.5508h3.7695v-1.1289z"/><path id="path3735" d="m258.17 52.311-2.8203 0.24023v0.80859h1.5312v8.7207l1.2891 0.0098z"/><path id="path3733" d="m249.16 52.152a2.83 2.83 0 0 0-1.8594 0.69726 4.1 4.1 0 0 0-1.1504 1.8906 8.65 8.65 0 0 0 0 5 4.11 4.11 0 0 0 1.1504 1.8906 2.69 2.69 0 0 0 1.8594 0.69922 2.68 2.68 0 0 0 1.8398-0.71094 4.13 4.13 0 0 0 1.1699-1.8789 8.7 8.7 0 0 0 0-5 4.09 4.09 0 0 0-1.1504-1.8906 2.83 2.83 0 0 0-1.8594-0.69726zm-0.19141 0.91016a1.6 1.6 0 0 1 1.7207 1.1367 9.56 9.56 0 0 1 0 6 1.6 1.6 0 0 1-1.5293 1.1309v0.0293a1.6 1.6 0 0 1-1.541-1.1602 9.62 9.62 0 0 1 0-6 1.6 1.6 0 0 1 1.3496-1.1367z"/><path id="path2097" d="m240.36 52.15a5.93 5.93 0 0 0-2.5586 0.60938v1.1895a8.24 8.24 0 0 1 1-0.48828 4.22 4.22 0 0 1 0.69922-0.2207 3.39 3.39 0 0 1 0.68945-0.07031 1.87 1.87 0 0 1 1.3301 0.46094 1.67 1.67 0 0 1 0.5 1.2793 2.64 2.64 0 0 1-0.30859 1.2305 5.14 5.14 0 0 1-1.1113 1.3301l-0.74023 0.66016a8.84 8.84 0 0 0-2.2695 2.8691v1.0801h5.75v-1.1309h-4.1992a3.17 3.17 0 0 1 0.69922-1.3984 9 9 0 0 1 1.0898-1.1211l0.5-0.42969a6.87 6.87 0 0 0 1.5898-1.7598 3.12 3.12 0 0 0 0.33008-1.4102 2.54 2.54 0 0 0-0.79883-1.9102 3 3 0 0 0-2.1914-0.76953z"/><path id="path3741" d="m229.92 53.561-1.2891 0.11914v1.3203h-0.89063v0.93945h0.89063v4.1699a2.12 2.12 0 0 0 0.55859 1.5801 2.06 2.06 0 0 0 1.5098 0.55078 4 4 0 0 0 1-0.16016l0.041-0.83984a2.8 2.8 0 0 1-0.62109 0.08984 1.16 1.16 0 0 1-0.9082-0.32031 1.6 1.6 0 0 1-0.29102-1.0703v-3.9394h1.8496v-1h-1.8496z"/><g id="g3758"><path id="path3737" d="m224.67 52.391v1.2891h1.3301v-1.2891z"/><path id="path3747" d="m224.67 55v7.0898l1.3301 0.019531v-7.1094z"/></g><path id="path3743" d="m219.77 54.801a2.93 2.93 0 0 0-1.6094 0.43945 3.1 3.1 0 0 0-1.1094 1.3398 4.43 4.43 0 0 0-0.41992 1.9102 3.91 3.91 0 0 0 1 2.6406 3.29 3.29 0 0 0 2.6387 1.1191 8 8 0 0 0 2.2402-0.39062v-1.0293a8.08 8.08 0 0 1-1.209 0.35938 4.62 4.62 0 0 1-0.79101 0.07031 2.63 2.63 0 0 1-1.2891-0.28906 2.18 2.18 0 0 1-0.81054-0.80078 3.66 3.66 0 0 1-0.41016-1.4492h4.5098v-0.39062a4 4 0 0 0-0.74024-2.6504 2.46 2.46 0 0 0-2-0.87891zm-0.0703 0.96875a1.42 1.42 0 0 1 1.0898 0.46094 2.21 2.21 0 0 1 0.43164 1.5293h-3.2207a2.59 2.59 0 0 1 0.50977-1.5 1.48 1.48 0 0 1 1.1894-0.49024z"/><path id="path3745" d="m212.27 54.82a2.64 2.64 0 0 0-1.4453 0.57031 1.86 1.86 0 0 0-0.62109 1.4297 1.74 1.74 0 0 0 0.40039 1.1602 3.24 3.24 0 0 0 1.2695 0.83984l0.75 0.32031a1.94 1.94 0 0 1 0.8418 0.53906 1 1 0 0 1 0.17968 0.55078 0.94 0.94 0 0 1-0.37109 0.75 1.4 1.4 0 0 1-0.91992 0.29883 5.07 5.07 0 0 1-2.1894-0.62891v1.1895a7.08 7.08 0 0 0 2.1504 0.35938 3.26 3.26 0 0 0 1.3691-0.2793 2.1 2.1 0 0 0 0.92969-0.7793 2 2 0 0 0 0.32031-1.0801 2 2 0 0 0-0.33985-1.1309 3.61 3.61 0 0 0-1.5898-1l-0.61914-0.25977a2.06 2.06 0 0 1-0.73047-0.4707 0.75 0.75 0 0 1-0.21094-0.51953 0.82 0.82 0 0 1 0.31055-0.64063 1.38 1.38 0 0 1 0.92969-0.26953 6.32 6.32 0 0 1 1.7207 0.33008v-1.0703l-0.26953-0.04883a8.3 8.3 0 0 0-1.4707-0.16016 2.64 2.64 0 0 0-0.39454 0z"/></g><rect id="rect4299" x="189.78" y="57.88" width="12.16" height=".65" stroke-width=".70263"/><g id="g3629"><path id="path3677" d="m174.74 62.09v-10.35h1.26v4.56a3.69 3.69 0 0 1 1.14-1.1 2.58 2.58 0 0 1 1.35-0.39 2 2 0 0 1 1.46 0.57 2.18 2.18 0 0 1 0.56 1.59v5.11h-1.29v-4.7a2.36 2.36 0 0 0-0.13-1 0.9 0.9 0 0 0-0.37-0.36 1 1 0 0 0-0.5-0.13 2.2 2.2 0 0 0-1 0.3 3.8 3.8 0 0 0-1.2 1.26v4.61z"/><path id="path3675" d="m172.74 61.87a7.44 7.44 0 0 1-2.14 0.38 3.07 3.07 0 0 1-1.72-0.51 3.27 3.27 0 0 1-1.18-1.35 4.37 4.37 0 0 1-0.4-1.89 4 4 0 0 1 0.86-2.63 3.23 3.23 0 0 1 2.66-1.05 8.36 8.36 0 0 1 1.84 0.23v1.08a6.45 6.45 0 0 0-1.75-0.32 1.81 1.81 0 0 0-1.61 0.81 3.37 3.37 0 0 0-0.54 1.92 3 3 0 0 0 0.61 1.94 2 2 0 0 0 1.58 0.74 4.06 4.06 0 0 0 1.79-0.45z"/><g id="g3729"><path id="path3671" d="m164 53.68v-1.29h1.29v1.29z"/><path id="path3673" d="m164 62.09v-7.09h1.29v7.11z"/></g><path id="path3669" d="m158.53 62.08v-7.08h1.29v1.3a2.85 2.85 0 0 1 0.95-1.1 2.24 2.24 0 0 1 1.27-0.39 2.74 2.74 0 0 1 0.41 0v1.19a1.84 1.84 0 0 0-0.59-0.11 1.89 1.89 0 0 0-1.12 0.36 3.29 3.29 0 0 0-0.92 1.09v4.7z"/><g id="g3724"><path id="path3667" d="m153.78 53.67v-1.12h1.13v1.13z"/><path id="path3665" d="m151.2 53.67v-1.12h1.13v1.13z"/><path id="path3663" d="m154.67 62.08v-1.33a3.75 3.75 0 0 1-1.14 1.11 2.57 2.57 0 0 1-1.34 0.39 2 2 0 0 1-1.46-0.57 2.18 2.18 0 0 1-0.56-1.6v-5.08h1.29v4.69a2.35 2.35 0 0 0 0.13 1 0.92 0.92 0 0 0 0.37 0.37 1 1 0 0 0 0.51 0.13 2.19 2.19 0 0 0 1-0.29 3.8 3.8 0 0 0 1.2-1.26v-4.64h1.33v7.11z"/></g><path id="path3661" d="m141.49 62.08v-1.08l5.19-7.57h-4.87v-1h6.51v1l-5.18 7.57h5.19v1.1z"/><path id="path3659" d="m128.07 62.08v-9.7h1.37v4.09h4.56v-4.08h1.37v9.7h-1.37v-4.58h-4.59v4.58z"/><path id="path3657" d="m121.91 62.08v-8.66h-3.43v-1h8.22v1h-3.43v8.67z"/><path id="path2039" d="m112.38 62.08v-9.7h5.41v1h-4v3.11h3.39v1h-3.39v3.51h4.32v1z"/></g></g><g id="g3613" fill="#dedede"><path id="path3591" d="m265.5 29.961a3.32 3.32 0 0 0-1.8242 0.71875 2.34 2.34 0 0 0-0.7793 1.8008 2.19 2.19 0 0 0 0.5 1.459 4.08 4.08 0 0 0 1.5996 1.0605l0.93945 0.31055a2.45 2.45 0 0 1 1.0606 0.68945 1.22 1.22 0 0 1 0.24023 0.67969 1.18 1.18 0 0 1-0.46093 1 1.76 1.76 0 0 1-1.1602 0.38086 6.38 6.38 0 0 1-2.7598-0.79102v1.5a8.93 8.93 0 0 0 2.6914 0.58984 4.12 4.12 0 0 0 1.7285-0.35938 2.66 2.66 0 0 0 1.1816-1 2.5 2.5 0 0 0 0.39844-1.3594 2.54 2.54 0 0 0-0.42969-1.4199 4.55 4.55 0 0 0-2-1.3203l-0.7793-0.33008a2.58 2.58 0 0 1-0.91992-0.58984 0.94 0.94 0 0 1-0.25977-0.65039 1 1 0 0 1 0.38868-0.80078 1.75 1.75 0 0 1 1.1699-0.33984 8 8 0 0 1 2.1699 0.41016v-1.3594l-0.33984-0.07031a10.47 10.47 0 0 0-1.8594-0.20899 3.32 3.32 0 0 0-0.49609 0z"/><path id="path3577" d="m252.11 29.881a3 3 0 0 0-1.7793 0.54883 4.7 4.7 0 0 0-1.2598 1.3301v-1.6797h-1.6211v9h1.6016v-6a6 6 0 0 1 1.4394-1.4492 2.29 2.29 0 0 1 1.1797-0.36133 1.28 1.28 0 0 1 0.85938 0.32031 1.56 1.56 0 0 1 0.38086 1.2207v6.2598h1.6191v-6a5.61 5.61 0 0 1 1.4512-1.4395 2.39 2.39 0 0 1 1.1992-0.36133 1.25 1.25 0 0 1 0.83984 0.32031 1.56 1.56 0 0 1 0.37109 1.2207v6.2598h1.6192v-6.5312a2.46 2.46 0 0 0-0.76954-2.0586 2.73 2.73 0 0 0-1.7207-0.59961 2.93 2.93 0 0 0-1.7402 0.53906 4.52 4.52 0 0 0-1.25 1.3496 3 3 0 0 0-0.62891-1.1602 2.59 2.59 0 0 0-0.79101-0.53906 2.52 2.52 0 0 0-1-0.18945z"/><path id="path3587" d="m241.29 29.93a3.69 3.69 0 0 0-2 0.55078 3.91 3.91 0 0 0-1.3984 1.6895 5.61 5.61 0 0 0-0.53124 2.4004 4.94 4.94 0 0 0 1.2109 3.3203 4.15 4.15 0 0 0 3.3203 1.4102 10.12 10.12 0 0 0 2.8301-0.5l-0.041-1.2812a10.35 10.35 0 0 1-1.5293 0.46094 5.87 5.87 0 0 1-1 0.08984 3.31 3.31 0 0 1-1.6309-0.35937 2.74 2.74 0 0 1-1-1 4.63 4.63 0 0 1-0.51954-1.8301h5.7305v-0.5a5.09 5.09 0 0 0-0.94141-3.3418 3.1 3.1 0 0 0-2.5-1.1094zm-0.0684 1.2109a1.8 1.8 0 0 1 1.3789 0.58008 2.79 2.79 0 0 1 0.54101 1.9199h-4.0605l0.01-0.0098a3.27 3.27 0 0 1 0.64063-1.8711 1.87 1.87 0 0 1 1.4902-0.61914z"/><path id="path3575" d="m233.45 28.33-1.6191 0.16016v1.6191h-1.1191v1.2305h1.1191v5.25a2.67 2.67 0 0 0 0.70898 2 2.6 2.6 0 0 0 1.9102 0.69922 5 5 0 0 0 1.3008-0.20898l-0.01-1.0996a3.54 3.54 0 0 1-0.77929 0.10938 1.46 1.46 0 0 1-1.1504-0.41016 2 2 0 0 1-0.36133-1.3496v-5h2.3398v-1.2207h-2.3398z"/><path id="path3589" d="m225.5 29.961a3.32 3.32 0 0 0-1.8242 0.71875 2.34 2.34 0 0 0-0.7793 1.8008 2.19 2.19 0 0 0 0.5 1.459 4.08 4.08 0 0 0 1.5996 1.0605l0.93945 0.31055a2.45 2.45 0 0 1 1.0606 0.68945 1.22 1.22 0 0 1 0.2207 0.67969 1.18 1.18 0 0 1-0.46093 1 1.76 1.76 0 0 1-1.1602 0.38086 6.38 6.38 0 0 1-2.7598-0.79102v1.5a8.93 8.93 0 0 0 2.7109 0.58984 4.12 4.12 0 0 0 1.7285-0.35938 2.66 2.66 0 0 0 1.1816-1 2.5 2.5 0 0 0 0.39844-1.3594 2.54 2.54 0 0 0-0.42969-1.4199 4.55 4.55 0 0 0-2-1.3203l-0.7793-0.33008a2.58 2.58 0 0 1-0.91992-0.58984 0.94 0.94 0 0 1-0.25977-0.65039 1 1 0 0 1 0.38868-0.80078 1.75 1.75 0 0 1 1.1699-0.33984 8 8 0 0 1 2.1699 0.41016v-1.3594l-0.33984-0.07031a10.47 10.47 0 0 0-1.8594-0.20899 3.32 3.32 0 0 0-0.49609 0z"/><path id="path3595" d="m212.88 30.09 3.459 9-1.4492 3.2598 1.6895-0.0293 4.8691-12.23h-1.5293l-2.7305 6.75-2.5586-6.75z"/><path id="path3569" d="m208.21 26.57a4 4 0 0 0-1.9512 0.42969 3.28 3.28 0 0 0-1.2305 1.1699 3.1 3.1 0 0 0-0.45899 1.6309 2.92 2.92 0 0 0 0.58008 1.7598 7.34 7.34 0 0 0 2.2598 1.75l0.83984 0.49023a4.9 4.9 0 0 1 1.6094 1.2285 2.07 2.07 0 0 1 0.32031 1.1211 1.82 1.82 0 0 1-0.60938 1.3691 2.32 2.32 0 0 1-1.6602 0.57031 6.23 6.23 0 0 1-1.2598-0.14062 11.53 11.53 0 0 1-2.1504-0.81836v1.7188a16 16 0 0 0 1.9004 0.40039 9 9 0 0 0 1.2598 0.08984 4.44 4.44 0 0 0 3.1992-1 3.33 3.33 0 0 0 1.0898-2.4805 3.15 3.15 0 0 0-0.56836-1.8594 7.2 7.2 0 0 0-2.2402-1.7402l-0.88085-0.5a12.92 12.92 0 0 1-1.1192-0.69922 2.3 2.3 0 0 1-0.65039-0.70117 1.58 1.58 0 0 1-0.24023-0.80859 1.67 1.67 0 0 1 0.50977-1.1309 2 2 0 0 1 1.5703-0.55078 4.74 4.74 0 0 1 1 0.11133 15.21 15.21 0 0 1 1.8809 0.65039v-1.5918a10.41 10.41 0 0 0-3-0.46875z"/><path id="path3567" d="m195.07 26v5.1309a3.72 3.72 0 0 0-0.81054-0.75 3 3 0 0 0-0.83008-0.35156 3.85 3.85 0 0 0-1-0.11914 3.25 3.25 0 0 0-2.7891 1.4199 5.93 5.93 0 0 0-1 3.5508 5.22 5.22 0 0 0 0.91016 3.1992 3 3 0 0 0 2.5488 1.2207 3.15 3.15 0 0 0 1.7402-0.48047 3.62 3.62 0 0 0 1.2402-1.4199v1.6797l1.6094-0.080078v-13zm-2.3809 5.1191a3 3 0 0 1 1.0606 0.19141 5 5 0 0 1 1.3301 0.92969v4.1289a5.05 5.05 0 0 1-1.3008 1.1113 2.7 2.7 0 0 1-1.3398 0.36914 1.7 1.7 0 0 1-1.5703-0.83984 4.48 4.48 0 0 1-0.50976-2.3105 5.15 5.15 0 0 1 0.57031-2.5801 1.89 1.89 0 0 1 1.7598-1z"/><path id="path3585" d="m183.2 29.93a3.69 3.69 0 0 0-2 0.55078 3.91 3.91 0 0 0-1.3984 1.6895 5.61 5.61 0 0 0-0.53125 2.4004 4.94 4.94 0 0 0 1.2109 3.3203 4.15 4.15 0 0 0 3.3203 1.4102 10.12 10.12 0 0 0 2.8301-0.5l-0.0508-1.2812a10.35 10.35 0 0 1-1.5293 0.46094 5.87 5.87 0 0 1-1 0.08984 3.31 3.31 0 0 1-1.6309-0.35937 2.74 2.74 0 0 1-1-1 4.63 4.63 0 0 1-0.51953-1.8301h5.7402v-0.5a5.09 5.09 0 0 0-0.9414-3.3418 3.1 3.1 0 0 0-2.5-1.1094zm-0.11914 1.2012a1.8 1.8 0 0 1 1.3809 0.58008 2.79 2.79 0 0 1 0.53906 1.9199h-4a3.27 3.27 0 0 1 0.58984-1.8809 1.87 1.87 0 0 1 1.4902-0.61914z"/><path id="path2007" d="m170.12 26v13.08h1.6699v-4.5996l4.2109 4.5996h2l-4.3398-4.8301 3.6191-4.1797h-1.75l-3.7891 4.3496v-8.4199z"/><path id="path3581" d="m167.6 29.91a2.83 2.83 0 0 0-1.5996 0.49024 3.6 3.6 0 0 0-1.1504 1.3594v-1.6797h-1.6191v9l1.5801-0.0293v-5.9199a4.15 4.15 0 0 1 1.1602-1.3809 2.39 2.39 0 0 1 1.4102-0.46094 2.32 2.32 0 0 1 0.73828 0.14063v-1.5195a3.47 3.47 0 0 0-0.51953 0z"/><path id="path3579" d="m156.42 29.91a4.42 4.42 0 0 0-2.3008 0.57031 3.63 3.63 0 0 0-1.459 1.6895 5.86 5.86 0 0 0-0.5 2.4297 5.65 5.65 0 0 0 0.55078 2.5195 3.66 3.66 0 0 0 1.5 1.6504 4.49 4.49 0 0 0 2.2188 0.51953 4.4 4.4 0 0 0 2.2812-0.56836 3.66 3.66 0 0 0 1.459-1.6914 5.81 5.81 0 0 0 0.50977-2.4395 5.69 5.69 0 0 0-0.54883-2.5098 3.59 3.59 0 0 0-1.4902-1.6504 4.55 4.55 0 0 0-2.2207-0.51953zm-0.20312 1.2363a2.41 2.41 0 0 1 2.1133 0.88281 4.21 4.21 0 0 1 0.66992 2.5703 4.27 4.27 0 0 1-0.68945 2.5605 2.2 2.2 0 0 1-1.8809 0.91016 2.19 2.19 0 0 1-1.8496-0.90039 4.26 4.26 0 0 1-0.66992-2.5703 4.24 4.24 0 0 1 0.66992-2.5703 2.41 2.41 0 0 1 1.6367-0.88281z"/><path id="path3593" d="m138.37 30.08 2.5606 9 1.6406 0.0293 2.1406-6.9492 1.8887 6.9492h1.5801l2.9102-9h-1.3906l-2.2383 6.9512-1.8516-6.9512h-1.6094l-2 6.9199-2-6.9492z"/><path id="path3573" d="m135.27 28.33-1.6191 0.16016v1.6191h-1.1211v1.2305h1.1211v5.25a2.66 2.66 0 0 0 0.70899 2 2.6 2.6 0 0 0 1.9102 0.69922 5 5 0 0 0 1.3008-0.20898l-0.01-1.0996a3.53 3.53 0 0 1-0.78125 0.10938 1.47 1.47 0 0 1-1.1484-0.41016 2 2 0 0 1-0.36133-1.3496v-5h2.3398v-1.2207h-2.3398z"/><path id="path3583" d="m127.43 29.93a3.69 3.69 0 0 0-2 0.55078 3.91 3.91 0 0 0-1.4004 1.6895 5.59 5.59 0 0 0-0.5293 2.4004 4.94 4.94 0 0 0 1.2109 3.3203 4.15 4.15 0 0 0 3.3184 1.4102 10.12 10.12 0 0 0 2.8301-0.5l0.0215-1.3203a10.34 10.34 0 0 1-1.5312 0.45898 5.87 5.87 0 0 1-1 0.08984 3.31 3.31 0 0 1-1.6289-0.35938 2.75 2.75 0 0 1-1-1 4.64 4.64 0 0 1-0.52148-1.8301h5.7402v-0.5a5.1 5.1 0 0 0-0.93947-3.3398 3.1 3.1 0 0 0-2.5703-1.0703zm-0.0703 1.2109a1.8 1.8 0 0 1 1.3808 0.58008 2.79 2.79 0 0 1 0.53907 1.9199h-4.0586v-0.0098a3.27 3.27 0 0 1 0.64844-1.8711 1.87 1.87 0 0 1 1.4902-0.61914z"/><path id="path3571" d="m111.7 26.859v12.221h1.5v-9.4297l6.1113 9.4297h1.6894v-12.221h-1.4902v9.4297l-6.1094-9.4297z"/></g></g><g id="g3042"><g id="g3021"><rect id="rect2041" class="cls-6" x="43.47" y=".39" width="2.33" height="13.37"/><polygon id="polygon2043" class="cls-6" points="39.75 10.14 44.63 19.94 49.51 10.14 44.63 12.59"/></g><g id="g3014"><rect id="rect2045" class="cls-6" x="43.28" y="75.84" width="2.33" height="14.4"/><polygon id="polygon2047" class="cls-6" points="49.32 79.46 44.44 69.66 39.56 79.46 44.44 77.01"/></g><g id="g3004"><rect id="rect2049" class="cls-6" x=".33" y="44.11" width="13.19" height="2.33"/><polygon id="polygon2051" class="cls-6" points="9.93 50.17 19.69 45.27 9.93 40.37 12.37 45.27"/></g><g id="g2997"><rect id="rect2053" class="cls-7" x="69.04" y="43.53" width="17.28" height="3.49"/><polygon id="polygon2055" class="cls-7" points="81.08 52.27 95.03 45.27 81.08 38.27 84.57 45.27"/></g><g fill="#fedda8"><rect id="rect2059" class="cls-11" x="45.7" y="46.35" width="20.34" height="20.42"/><rect id="rect2079" class="cls-11" x="22.91" y="22.94" width="20.48" height="20.56"/><rect id="rect2089" class="cls-11" x="45.7" y="22.89" width="20.58" height="20.66"/><rect id="rect2069" class="cls-11" x="22.91" y="46.35" width="20.34" height="20.42"/></g></g></svg>
